<svg id="PennGSE" xmlns="http://www.w3.org/2000/svg" viewBox="0 0 898.23 245.96"><defs><style>.cls-1{fill:#fff;}.cls-2{fill:#900;}.cls-3,.cls-5{fill:none;stroke:#011f5b;stroke-linecap:round;stroke-linejoin:round;}.cls-3{stroke-width:1.18px;}.cls-4{fill:#011f5b;}.cls-5{stroke-width:1.26px;}</style></defs><path class="cls-1" d="M209.06,0H0V104.21c-.14,45.37,25,78.22,46.12,97.8,23.22,21.53,48.82,33.94,57.37,35.8l1,.23,1-.23c8.54-1.86,34.14-14.27,57.36-35.8,21.12-19.58,46.26-52.43,46.12-97.8C209.05,102.92,209.06,0,209.06,0Z"/><path class="cls-2" d="M5.29,5.5s.27,60.57,0,60.28H203.79V5.5ZM58.56,43.63h0a3.84,3.84,0,0,1,.84.82,2.23,2.23,0,0,1,0,2.4,3.84,3.84,0,0,1-.84.82c-.48.37-.92.72-.92,1.33v3.71H13.8V49c0-.61-.45-1-.92-1.33a3.68,3.68,0,0,1-.85-.82,2.23,2.23,0,0,1,0-2.4,3.68,3.68,0,0,1,.85-.82c.47-.37.92-.72.92-1.33V30.19c0-.61-.45-1-.92-1.33A3.68,3.68,0,0,1,12,28a2.23,2.23,0,0,1,0-2.4,3.67,3.67,0,0,1,.85-.82c.47-.37.92-.72.92-1.33V19.67h.56c2.56,0,4.81-.06,6.37-.73a12.81,12.81,0,0,0,1.86-1,9.11,9.11,0,0,1,5.14-1.8,13.72,13.72,0,0,1,5,1.29,8.78,8.78,0,0,0,2.81.83h.29a8.82,8.82,0,0,0,2.82-.83,13.67,13.67,0,0,1,5-1.29,9.17,9.17,0,0,1,5.15,1.8,12.21,12.21,0,0,0,1.85,1c1.57.67,3.82.73,6.38.73h.56v3.82c0,.61.44,1,.92,1.33a3.84,3.84,0,0,1,.84.82,2.23,2.23,0,0,1,0,2.4,3.84,3.84,0,0,1-.84.82c-.48.37-.92.72-.92,1.33V42.3C57.64,42.91,58.08,43.26,58.56,43.63ZM142.44,50c-3.39,5.42-9.93,6.74-10.2,6.8a23.43,23.43,0,0,1-3.93.34h0c-6.83,0-13.14-3-19.55-6.29-.72-.37-1.52-.81-2.38-1.28-4.09-2.24-9.8-5.36-14.63-5.36a8.34,8.34,0,0,0-3.93.89l-.2.11v.22a5.75,5.75,0,0,1-.36,1.78c-.77,2.06-3.29,4.25-4.51,5.12-2.81,2-6.27,4.09-10.57,4.09a5.59,5.59,0,0,1-1.78-.27,4.14,4.14,0,0,1-1.92-1.36,4.62,4.62,0,0,1-.59-1,3.85,3.85,0,0,1-.25-1l0-.25-.24-.07c-1.67-.5-2.67-1.6-2.67-2.92a4.63,4.63,0,0,1,1.45-2.72c1.12-1.32,2.08-2.46.51-4-.15-.14-.32-.26-.48-.39a4.1,4.1,0,0,1-.64-.53c-1.38-1.48-.57-4.55-.08-6.38l0-.2A32.64,32.64,0,0,1,68,29c1.54-3.06,3.4-6.51,6-8.69a.21.21,0,0,1,.18-.06.25.25,0,0,1,.17.11c0,.08.33.52.74,1.2l.44.73.27-.81a6.16,6.16,0,0,1,3.56-4.17,4.58,4.58,0,0,1,4.2.86l.34.25.23-.37a3.79,3.79,0,0,1,3.1-1.95A5.44,5.44,0,0,1,91.13,18l.26.27.28-.24c.79-.66,2.86-2.17,4.94-1.89a3.71,3.71,0,0,1,2.94,2.7l.14.44.41-.21a4.53,4.53,0,0,1,4.43,0,2.77,2.77,0,0,1,1.13,2.74l0,.51.51-.09c1.27-.21,3.62-.36,5,1.06a4.24,4.24,0,0,1,1,3.58l-.06.51.5-.06A3.39,3.39,0,0,1,116,28.55a3.54,3.54,0,0,1,.16,2.69l-.11.39.39.1a2.9,2.9,0,0,1,2.13,1.49,5.67,5.67,0,0,1-.22,3.18l-.1.34.33.14a4.19,4.19,0,0,1,2.15,1.88,4.84,4.84,0,0,1-.07,4l-.1.26.2.18c1.46,1.29,2.93,2.48,4.37,3.52,2.92,2.13,7.47,3.25,10.56.71A4.37,4.37,0,0,0,137,43.05a3.49,3.49,0,0,0-2.64-2.76c-2.34-.52-4.19,1.7-5.7,3.94a.25.25,0,0,1-.22.11.24.24,0,0,1-.19-.15c-1.38-3.31-1.45-6-.2-8.16a7.77,7.77,0,0,1,5.6-3.44l.34-.05V32.2c-.05-3.92.89-6.78,2.79-8.5,1.15-1,3.27-2.18,6.81-1.7a.25.25,0,0,1,.18.11.26.26,0,0,1,0,.21c-2.61,6.28-2,8.64-.55,13.79.13.46.26.93.39,1.43h0C144.94,42.43,144.54,46.61,142.44,50Zm53.75-6.34h0a3.89,3.89,0,0,1,.85.82,2.23,2.23,0,0,1,0,2.4,3.89,3.89,0,0,1-.85.82c-.47.37-.92.72-.92,1.33v3.71H151.43V49c0-.61-.45-1-.92-1.33a3.89,3.89,0,0,1-.85-.82,2.23,2.23,0,0,1,0-2.4,3.89,3.89,0,0,1,.85-.82c.47-.37.92-.72.92-1.33V30.19c0-.61-.45-1-.92-1.33a3.89,3.89,0,0,1-.85-.82,2.23,2.23,0,0,1,0-2.4,4.11,4.11,0,0,1,.85-.82c.47-.37.92-.72.92-1.33V19.67H152c2.56,0,4.81-.06,6.38-.73a13.26,13.26,0,0,0,1.85-1,9.13,9.13,0,0,1,5.14-1.8,13.67,13.67,0,0,1,5,1.29,8.85,8.85,0,0,0,2.81.83h.3a8.9,8.9,0,0,0,2.82-.83,13.57,13.57,0,0,1,5-1.29,9.13,9.13,0,0,1,5.14,1.8,12.81,12.81,0,0,0,1.86,1c1.56.67,3.81.73,6.37.73h.56v3.82c0,.61.45,1,.92,1.33a4.11,4.11,0,0,1,.85.82,2.23,2.23,0,0,1,0,2.4,3.89,3.89,0,0,1-.85.82c-.47.37-.92.72-.92,1.33V42.3C195.27,42.91,195.72,43.26,196.19,43.63Z"/><path class="cls-3" d="M104.7,48.42"/><path class="cls-3" d="M117,54.56"/><path class="cls-3" d="M98.89,45.45"/><path class="cls-3" d="M87.22,47.24"/><path class="cls-3" d="M132.93,33.29"/><path class="cls-3" d="M93.34,44.44"/><path class="cls-3" d="M117.36,31.87"/><path class="cls-3" d="M139,52.91"/><path class="cls-3" d="M128,39.2"/><path class="cls-3" d="M111.16,51.49"/><path class="cls-4" d="M73.67,41a3,3,0,0,1,2,.72c.22.18.42.36.59.53a1,1,0,0,1-.06,1.56c-.49.4-1,.8-1.4,1-.81.56-2.19,1.57-3.16.77-.48-.4.48-1.06.06-2.73C71.38,41.61,72.67,41,73.67,41Z"/><path class="cls-5" d="M76.82,25.6"/><path class="cls-4" d="M128.31,57.5c-6.85,0-13.26-3-19.74-6.33-.73-.37-1.54-.82-2.39-1.28C101,47,93.11,42.73,88,45.42a6.23,6.23,0,0,1-.38,1.9c-.8,2.15-3.39,4.41-4.65,5.3-2.86,2.06-6.38,4.17-10.8,4.17a5.74,5.74,0,0,1-1.9-.3A4.45,4.45,0,0,1,68.15,55a4.66,4.66,0,0,1-.64-1.11,4.16,4.16,0,0,1-.28-1.06c-1.83-.55-2.94-1.78-2.94-3.29a4.89,4.89,0,0,1,1.54-3c1.24-1.47,1.78-2.22.54-3.4a4.43,4.43,0,0,0-.45-.36,4.61,4.61,0,0,1-.69-.59c-1.52-1.63-.68-4.83-.17-6.74l0-.2a33.13,33.13,0,0,1,2.51-6.41c1.55-3.1,3.44-6.59,6.1-8.83a.69.69,0,0,1,.5-.14.66.66,0,0,1,.44.28c.09.14,1.16,1.78,2.27,3.93,4.64-2.77,11.25-3.09,12-3.12,4.08-.15,10,.49,15,4.39a57.75,57.75,0,0,1,8.23,8.32l2,2.29a70.65,70.65,0,0,0,11.17,10.41c2.8,2,7.15,3.13,10.08.72a4,4,0,0,0,1.16-4,3.11,3.11,0,0,0-2.35-2.47c-2.1-.46-3.85,1.65-5.28,3.78a.62.62,0,0,1-1.1-.11c-1.44-3.43-1.5-6.29-.18-8.51a8.2,8.2,0,0,1,5.88-3.63c0-4,.94-7,2.92-8.79,1.22-1.1,3.44-2.3,7.14-1.8a.62.62,0,0,1,.46.31.59.59,0,0,1,0,.55c-2.55,6.16-1.92,8.47-.53,13.53q.19.69.39,1.44c1.34,5,.93,9.28-1.23,12.73-3.48,5.57-10.19,6.93-10.47,7A22.85,22.85,0,0,1,128.31,57.5ZM91.79,43.29c5,0,10.58,3.08,15,5.49.85.46,1.65.9,2.37,1.27,7.53,3.9,14.95,7.28,22.93,5.86,0,0,6.45-1.31,9.63-6.41,2-3.15,2.33-7.09,1.09-11.73-.14-.5-.27-1-.39-1.43-1.33-4.82-2.08-7.56.26-13.56a6.88,6.88,0,0,0-5.3,1.57c-1.79,1.62-2.63,4.44-2.49,8.38a.63.63,0,0,1-.57.65,7.14,7.14,0,0,0-5.51,3.09c-1,1.63-1,3.74-.16,6.29,1.22-1.66,3.28-3.9,5.91-3.32a4.4,4.4,0,0,1,3.31,3.41,5.27,5.27,0,0,1-1.59,5.23c-3.45,2.84-8.44,1.64-11.62-.67a72.25,72.25,0,0,1-11.37-10.59c-.68-.76-1.36-1.55-2-2.31a56.74,56.74,0,0,0-8-8.14C98.47,22.7,92.86,22.1,89,22.24c-2.64.1-7.93.84-11.48,3,1.08,2.26,2.07,4.86,2.07,6.87a3.42,3.42,0,0,1-.2,1.07c2.57-1.52,5.66-.43,7.39,1.46A12.93,12.93,0,0,1,88,36.36a18.12,18.12,0,0,0,2.36,3.06.67.67,0,0,1,.19.5.61.61,0,0,1-.27.47s-1.64,1.16-4,2.88c-.31.23-.64.45-.94.65l-.17.12,2,.34A9.28,9.28,0,0,1,91.79,43.29ZM74,21.48c-2.2,2.09-3.86,5.18-5.25,7.94a31.75,31.75,0,0,0-2.41,6.17l0,.2c-.38,1.44-1.18,4.44-.13,5.56a3.88,3.88,0,0,0,.52.44c.19.14.38.28.57.45,2.16,2,.66,3.83-.44,5.14a4,4,0,0,0-1.25,2.16c0,1.52,1.84,2.05,2.41,2.18a.63.63,0,0,1,.49.57,3.54,3.54,0,0,0,.22,1.12,3.68,3.68,0,0,0,.48.82,3.23,3.23,0,0,0,1.51,1.07,4.73,4.73,0,0,0,1.5.22c4.06,0,7.37-2,10.07-3.92,1.61-1.15,3.63-3.19,4.2-4.72a5.19,5.19,0,0,0,.29-1.31l-2.84-.48-.08,0a.74.74,0,0,1-.54-.59c-.09-.57.42-.92,1.42-1.6.3-.2.61-.41.9-.63,1.49-1.1,2.7-2,3.38-2.46a23.79,23.79,0,0,1-2-2.74,13.26,13.26,0,0,0-1.12-1.56c-1.41-1.53-3.89-2.43-5.91-1.18a18.09,18.09,0,0,0-2.28,1.81,20.34,20.34,0,0,1-1.93,1.58.62.62,0,0,1-.84-.11.63.63,0,0,1,0-.86l.32-.3c.92-.86,3.07-2.89,3.07-4.32C78.3,28.78,75.12,23.32,74,21.48Z"/><path class="cls-4" d="M69.73,53.15A16.15,16.15,0,0,1,67.91,53a.63.63,0,0,1,.15-1.26A12.44,12.44,0,0,0,78.78,48a.62.62,0,0,1,.89,0,.63.63,0,0,1,0,.89A13.61,13.61,0,0,1,69.73,53.15Z"/><path class="cls-4" d="M120.34,43.68a.52.52,0,0,1-.24,0,.58.58,0,0,1-.3-.77,4.39,4.39,0,0,0,.26-3.73,3.52,3.52,0,0,0-2.18-1.67.6.6,0,0,1-.38-.3.58.58,0,0,1,0-.48,6.13,6.13,0,0,0,.4-3.19c-.27-.74-1.66-1.05-2.13-1.1a.61.61,0,0,1-.45-.29.58.58,0,0,1,0-.53,3.42,3.42,0,0,0,.12-2.6c-.94-1.44-3.38-.74-3.41-.74a.56.56,0,0,1-.59-.15.6.6,0,0,1-.13-.6s.7-2.23-.67-3.64c-1.61-1.64-5.06-.68-5.1-.67a.59.59,0,0,1-.58-.15.57.57,0,0,1-.14-.59c0-.08.59-1.91-.64-2.69-2-1.25-4.21.34-4.23.36a.59.59,0,0,1-.59.06.56.56,0,0,1-.34-.47c0-.1-.34-2.5-2.45-2.78-2.28-.31-4.7,2-4.72,2.06a.6.6,0,0,1-.46.17.55.55,0,0,1-.42-.23s-1.63-2.1-3.66-2A3.35,3.35,0,0,0,84.51,19a.58.58,0,0,1-.42.37.59.59,0,0,1-.54-.15s-2-1.87-3.94-1.14c-2.5.92-3.21,4-3.44,5v0A.59.59,0,1,1,75,22.82v0c.27-1.16,1.09-4.68,4.18-5.82a5,5,0,0,1,4.57.91,4.24,4.24,0,0,1,3.42-2.14,5.83,5.83,0,0,1,4.23,2c.91-.77,3-2.28,5.24-2a4.06,4.06,0,0,1,3.27,3,4.85,4.85,0,0,1,4.81,0,3.12,3.12,0,0,1,1.31,3.1c1.34-.22,3.84-.37,5.36,1.18a4.62,4.62,0,0,1,1.14,3.91,3.82,3.82,0,0,1,3.81,1.4,3.86,3.86,0,0,1,.2,3A3.28,3.28,0,0,1,119,33.09a6.11,6.11,0,0,1-.21,3.42,4.56,4.56,0,0,1,2.35,2.07,5.52,5.52,0,0,1-.23,4.75A.6.6,0,0,1,120.34,43.68Z"/><path class="cls-4" d="M117.39,51.82h-.07a.58.58,0,0,1-.51-.65c.27-2.26-1-2.67-2.22-3a4.38,4.38,0,0,1-.79-.3c-.63-.36-.65-1.12-.68-1.91a3.81,3.81,0,0,0-.69-2.51c-1.1-1.22-3.27-.43-3.29-.42a.58.58,0,0,1-.58-.1.59.59,0,0,1-.21-.54s.35-2.41-1-3.57c-1.17-1-3.37-.75-4.12-.58a.57.57,0,0,1-.52-.12.58.58,0,0,1-.2-.49,3.7,3.7,0,0,0-1.62-3.48,3,3,0,0,0-3-.22c-2.47,1.33-3.44,1.42-6-.41a2.83,2.83,0,0,0-2.4-.57,4.33,4.33,0,0,0-2.57,2.49.59.59,0,0,1-1.06-.52,5.47,5.47,0,0,1,3.34-3.11,4,4,0,0,1,3.37.74c2.19,1.55,2.69,1.48,4.81.34a4.15,4.15,0,0,1,4.22.27,4.8,4.8,0,0,1,2.16,3.81,6,6,0,0,1,4.42,1,4.91,4.91,0,0,1,1.48,3.78,3.92,3.92,0,0,1,3.74,1,4.79,4.79,0,0,1,1,3.25,3.67,3.67,0,0,0,.1.94,4.53,4.53,0,0,0,.53.18c1.12.35,3.44,1.07,3,4.3A.59.59,0,0,1,117.39,51.82Z"/><path class="cls-4" d="M58.81,43.31c-.49-.38-.77-.61-.77-1V30.19c0-.4.28-.63.77-1a4.14,4.14,0,0,0,.93-.9,2.64,2.64,0,0,0,0-2.86,4.43,4.43,0,0,0-.93-.91c-.49-.38-.77-.61-.77-1V19.27h-1c-2.25,0-4.66,0-6.22-.7a12.54,12.54,0,0,1-1.8-1A9.45,9.45,0,0,0,43.7,15.7,14,14,0,0,0,38.53,17a8.49,8.49,0,0,1-2.67.81h-.29A8.65,8.65,0,0,1,32.9,17a14,14,0,0,0-5.17-1.31,9.48,9.48,0,0,0-5.36,1.86,12.54,12.54,0,0,1-1.8,1c-1.56.67-4,.69-6.21.7h-1v4.22c0,.4-.28.63-.77,1a4.21,4.21,0,0,0-.93.91,2.64,2.64,0,0,0,0,2.86,4,4,0,0,0,.93.9c.49.39.77.62.77,1V42.3c0,.4-.28.63-.77,1a4.21,4.21,0,0,0-.93.91,2.64,2.64,0,0,0,0,2.86,4.21,4.21,0,0,0,.93.91c.49.38.77.61.77,1v4l0,.06H58.07l0-.06V49c0-.4.28-.63.77-1a4.43,4.43,0,0,0,.93-.91,2.64,2.64,0,0,0,0-2.86A4.43,4.43,0,0,0,58.81,43.31Zm-19.75-25a12.75,12.75,0,0,1,4.64-1.22,8,8,0,0,1,4.61,1.65,13.33,13.33,0,0,0,2,1.11,8.52,8.52,0,0,0,1.86.54V46.14A24.63,24.63,0,0,0,48.76,46a19,19,0,0,1-5.6-.57l-1.87-.59a25.83,25.83,0,0,0-4.75-1.24h-.07V19.18A13.62,13.62,0,0,0,39.06,18.33ZM21.13,19.87a13.73,13.73,0,0,0,2-1.11,8,8,0,0,1,4.61-1.65,12.75,12.75,0,0,1,4.64,1.22,12.25,12.25,0,0,0,2.68.86V43.55l-.14,0a25.63,25.63,0,0,0-4.75,1.24l-1.88.59a19,19,0,0,1-5.6.57,24.79,24.79,0,0,0-3.41.17V20.41A8.52,8.52,0,0,0,21.13,19.87Zm37.79,25.8a1.17,1.17,0,0,1-.21.72,3.31,3.31,0,0,1-.66.62,2.48,2.48,0,0,0-1.25,2v2.7H14.63V49a2.49,2.49,0,0,0-1.24-2,3.13,3.13,0,0,1-.67-.62,1.23,1.23,0,0,1-.2-.72v0a1.18,1.18,0,0,1,.2-.71,2.92,2.92,0,0,1,.67-.63,2.49,2.49,0,0,0,1.24-2V30.19a2.49,2.49,0,0,0-1.24-2,2.92,2.92,0,0,1-.67-.63,1.18,1.18,0,0,1-.2-.71v0a1.23,1.23,0,0,1,.2-.72,3.13,3.13,0,0,1,.67-.62,2.49,2.49,0,0,0,1.24-2V20.68h.09c1.1,0,2.17,0,3.17-.09V48.44H33.24a2.57,2.57,0,0,0,5,0H53.55V20.59c1,.08,2.07.09,3.16.09h.09v2.81a2.48,2.48,0,0,0,1.25,2,3.31,3.31,0,0,1,.66.62,1.17,1.17,0,0,1,.21.72v0a1.12,1.12,0,0,1-.21.71,3.08,3.08,0,0,1-.66.63,2.48,2.48,0,0,0-1.25,2V42.3a2.48,2.48,0,0,0,1.25,2,3.08,3.08,0,0,1,.66.63,1.12,1.12,0,0,1,.21.71v0Z"/><path class="cls-4" d="M196.44,43.31c-.49-.38-.77-.61-.77-1V30.19c0-.4.28-.63.77-1a4.14,4.14,0,0,0,.93-.9,2.64,2.64,0,0,0,0-2.86,4.43,4.43,0,0,0-.93-.91c-.49-.38-.77-.61-.77-1V19.27h-1c-2.24,0-4.65,0-6.22-.7a12.45,12.45,0,0,1-1.79-1,9.48,9.48,0,0,0-5.36-1.86A14,14,0,0,0,176.17,17a8.65,8.65,0,0,1-2.67.81h-.3a8.52,8.52,0,0,1-2.66-.81,14.07,14.07,0,0,0-5.18-1.31A9.42,9.42,0,0,0,160,17.56a13.1,13.1,0,0,1-1.8,1c-1.57.67-4,.69-6.22.7h-1v4.22c0,.4-.28.63-.77,1a4.43,4.43,0,0,0-.93.91,2.64,2.64,0,0,0,0,2.86,4.14,4.14,0,0,0,.93.9c.49.39.77.62.77,1V42.3c0,.4-.28.63-.77,1a4.43,4.43,0,0,0-.93.91,2.64,2.64,0,0,0,0,2.86,4.43,4.43,0,0,0,.93.91c.49.38.77.61.77,1v4l0,.06h44.7l0-.06V49c0-.4.28-.63.77-1a4.43,4.43,0,0,0,.93-.91,2.64,2.64,0,0,0,0-2.86A4.43,4.43,0,0,0,196.44,43.31Zm-19.75-25a12.85,12.85,0,0,1,4.65-1.22,8,8,0,0,1,4.6,1.65,13.84,13.84,0,0,0,2,1.11,8.61,8.61,0,0,0,1.87.54V46.14A24.79,24.79,0,0,0,186.4,46a19,19,0,0,1-5.6-.57l-1.88-.59a25.63,25.63,0,0,0-4.75-1.24h-.07V19.18A13.4,13.4,0,0,0,176.69,18.33Zm-17.93,1.54a13.33,13.33,0,0,0,2-1.11,8,8,0,0,1,4.6-1.65A12.85,12.85,0,0,1,170,18.33a12,12,0,0,0,2.67.86V43.55l-.14,0a25.83,25.83,0,0,0-4.75,1.24l-1.87.59a19,19,0,0,1-5.6.57,24.63,24.63,0,0,0-3.41.17V20.41A8.6,8.6,0,0,0,158.76,19.87Zm37.79,25.8a1.23,1.23,0,0,1-.2.72,3.13,3.13,0,0,1-.67.62,2.47,2.47,0,0,0-1.24,2v2.7H152.27V49A2.48,2.48,0,0,0,151,47a3.06,3.06,0,0,1-.66-.62,1.17,1.17,0,0,1-.21-.72v0a1.12,1.12,0,0,1,.21-.71,2.86,2.86,0,0,1,.66-.63,2.48,2.48,0,0,0,1.25-2V30.19a2.48,2.48,0,0,0-1.25-2,2.86,2.86,0,0,1-.66-.63,1.12,1.12,0,0,1-.21-.71v0a1.17,1.17,0,0,1,.21-.72,3.06,3.06,0,0,1,.66-.62,2.48,2.48,0,0,0,1.25-2V20.68h.08c1.1,0,2.17,0,3.18-.09V48.44h15.35a2.57,2.57,0,0,0,5,0h15.35V20.59c1,.08,2.06.09,3.16.09h.09v2.81a2.47,2.47,0,0,0,1.24,2,3.13,3.13,0,0,1,.67.62,1.23,1.23,0,0,1,.2.72v0a1.18,1.18,0,0,1-.2.71,2.92,2.92,0,0,1-.67.63,2.47,2.47,0,0,0-1.24,2V42.3a2.47,2.47,0,0,0,1.24,2,2.92,2.92,0,0,1,.67.63,1.18,1.18,0,0,1,.2.71v0Z"/><path class="cls-4" d="M205.1,4H4s0,98.94,0,100.25c-.13,43.93,24.31,75.85,44.85,94.88,22.38,20.76,47.59,33.11,55.51,34.84l.2,0,.21,0c7.92-1.73,33.13-14.08,55.51-34.84,20.53-19,45-50.95,44.85-94.88C205.09,102.91,205.1,4,205.1,4Zm-2.79,2.79c0,6.4,0,33.58,0,57.62H6.76V6.76ZM45.56,162.12a17.23,17.23,0,1,1,24.36,0A17.24,17.24,0,0,1,45.56,162.12Zm112.79,34.93c-23.25,21.57-47.36,32.43-53.82,34.07-6.45-1.64-30.56-12.5-53.81-34.07-.57-.52-1.14-1.06-1.71-1.6l55.52-58.95,55.53,58.95C159.49,196,158.92,196.53,158.35,197.05Zm-71-89.85a17.23,17.23,0,1,1,17.22,17.22A17.22,17.22,0,0,1,87.31,107.2Zm76.2,54.92a17.23,17.23,0,1,1,0-24.36A17.25,17.25,0,0,1,163.51,162.12Zm27.65-8.72L104.53,69.85,17.91,153.4A112.74,112.74,0,0,1,6.76,104.23c0-.55,0-17.41,0-37.06H202.3v37.06A112.6,112.6,0,0,1,191.16,153.4Z"/><path class="cls-4" d="M721.84,76.17v3.57q-8.19,0-11.7,3.73t-3.51,12.88v33.11c-2.87.78-8.24,1.47-16.11,2.11s-14,.94-18.31.94q-34.1,0-53.14-16.78T600,71.45a71.59,71.59,0,0,1,8.34-34.62,63.21,63.21,0,0,1,23.29-24.45,60.49,60.49,0,0,1,31.74-9,76.51,76.51,0,0,1,21.93,3.57q7.54,2.21,11.54,2.2c3.5,0,5.8-1.36,6.92-4.09h3.88v36.3h-3.46a35.77,35.77,0,0,0-13.69-24.18A42.73,42.73,0,0,0,663.4,8.08q-19.51,0-32,15.58T618.92,63.9q0,27.06,14.42,44.9t36.25,17.84q20.67,0,20.67-13.14V100.14q0-11.36-3-15.88t-10.55-4.52H672V76.17Z"/><path class="cls-4" d="M791.33,4.62h3.47V33.47h-3.68q-1.26-12-8.65-18.67T763.85,8.08q-10,0-16.06,5a16.56,16.56,0,0,0-6.08,13.43,22.37,22.37,0,0,0,5,14.16q5,6.4,21.83,16.47,19.51,11.66,26.23,20.36a31.78,31.78,0,0,1,6.71,19.93,35.08,35.08,0,0,1-35,35q-8.37,0-21.37-4.61-5.34-1.89-6.81-1.89-3,0-4.71,4.72H730V97.47h3.67q.11,13.75,9,22a29.29,29.29,0,0,0,20.68,8.29q11.21,0,18-6t6.76-16q0-7.45-5.55-14.28T759.23,74q-14.4-8.88-19.21-14a33.8,33.8,0,0,1-7.13-11.28,38.05,38.05,0,0,1-2.3-13.49q0-14.18,9.28-23t24.19-8.82a56.41,56.41,0,0,1,17.83,3.25,24.53,24.53,0,0,0,6.3,1.47,2.52,2.52,0,0,0,2-.63A8.92,8.92,0,0,0,791.33,4.62Z"/><path class="cls-4" d="M881.87,53h3.67V82.89h-3.67Q879.88,75,877,73t-12.38-2H834.13V115.1q0,4.61,2,6.5t7,1.89h21.51q11.54,0,16-1.26a15.52,15.52,0,0,0,7.45-4.67q3-3.41,6.5-11.07h3.67l-5.66,23H803.91V125.9q8.3,0,11.13-4.25t2.83-15.07v-77q0-11.23-2.94-15.44t-11-4.2V6.4h88.66V27h-2.31c-1.26-5.88-3.06-9.77-5.4-11.7s-7.44-2.89-15.27-2.89H834.13V65.05h34.41q7,0,9.6-2.52T881.87,53Z"/><path class="cls-4" d="M261.9,65c5.7,2,9,2.19,15.57,2.19C296.11,67.14,308,57.05,308,40c0-13.38-7.46-31.36-30.49-31.36H261.9V65Zm0,40.79c0,15.57,3.73,20,14.26,20v3.72H231V125.7c8.77,0,14.25-2.86,14.25-19.52V27.45c0-15.35-3.72-20-14.25-20V3.76h45.83c34.65,0,48.69,18.42,48.69,35.75C325.5,60.34,309.71,72,281.2,72a145,145,0,0,1-19.3-1.32v35.09Z"/><path class="cls-4" d="M370.67,78.33c.66-17.11-11-24.13-20.83-24.13-12.94,0-20.61,9.65-21.49,24.13Zm-42.32,3.72c-.44,34.87,20.4,43.65,30.92,43.65,10.75,0,16.23-3.73,27.42-16.23v5.7c-9.43,12.06-18.43,16.67-32,16.67-24.35,0-41.89-16.89-41.89-40.36s17.1-41.88,39-41.88c18,0,34.65,14.47,33.55,32.45Z"/><path class="cls-4" d="M469.58,112.54c0,10.08,2.19,13.16,13.16,13.16v3.72H441.29V125.7c10.52,0,13.38-2.42,13.38-9.65V75.47c0-12.49-9-17.76-17.33-17.76-7.67,0-14.47,4.83-22.15,15.13v37.94c0,11.84,1.54,14.92,13.16,14.92v3.72h-41V125.7c10.31,0,12.94-.88,12.94-14.92V67.14c0-9.43-2.41-11.4-12.94-11.4V52l24.12-2.41h3.73V65.17C424.4,54.64,433.4,49.6,443.26,49.6c12.94,0,26.32,9.21,26.32,27.85v35.09Z"/><path class="cls-4" d="M564.54,112.54c0,10.08,2.19,13.16,13.16,13.16v3.72H536.25V125.7c10.52,0,13.37-2.42,13.37-9.65V75.47c0-12.49-9-17.76-17.32-17.76-7.68,0-14.47,4.83-22.15,15.13v37.94c0,11.84,1.54,14.92,13.16,14.92v3.72h-41V125.7c10.3,0,12.94-.88,12.94-14.92V67.14c0-9.43-2.41-11.4-12.94-11.4V52l24.12-2.41h3.73V65.17c9.21-10.53,18.2-15.57,28.07-15.57,12.94,0,26.32,9.21,26.32,27.85v35.09Z"/><path class="cls-4" d="M240.14,220.56c0,6.7,1.81,11.81,8.94,11.81,6.55,0,10-4.39,10-12V207a17.93,17.93,0,0,0-.29-2.57c-.24-1.72-1.86-2.39-4.12-2.62v-1.25H266v1.25c-2.29.23-3.87.9-4.11,2.62a19.74,19.74,0,0,0-.27,2.57v13.49c0,10.28-6.56,14.11-12.74,14.11-10.18,0-13.33-5.16-13.33-13.82V206.56c0-4.45.19-4.22-4.12-4.73v-1.25h12.86v1.25c-4.3.51-4.11.28-4.11,4.73v14Z"/><path class="cls-4" d="M293,234.05c-5.86-6.94-11.94-14.21-18-21.29v16.31a14.43,14.43,0,0,0,.23,2c.19,1.34,1.44,1.86,3.88,2v1h-9v-1c1.77-.17,3-.69,3.17-2a14.56,14.56,0,0,0,.22-2V211.69c-1-1.34-2.17-2.51-4.28-2.51v-1H276c5.49,6.68,11.21,13.47,16.71,20.14h.07V213.21a15,15,0,0,0-.21-2c-.19-1.32-1.45-1.83-3.88-2v-1h9v1c-1.74.19-3,.7-3.17,2a13.41,13.41,0,0,0-.22,2v20.84Z"/><path class="cls-4" d="M311.25,229.44c0,3.42-.15,3.24,3.17,3.64v1H304.5v-1c3.32-.4,3.17-.22,3.17-3.64V212.83c0-3.43.15-3.25-3.17-3.65v-1h9.92v1c-3.32.4-3.17.22-3.17,3.65v16.61Z"/><path class="cls-4" d="M330.5,209.18c-2,0-3.5.59-2.29,4.13,1.45,4.36,3.59,10.7,5.5,16.31,2.37-5.65,4.62-11.33,6.9-17,.93-2.33,0-3.47-2.54-3.47v-1h8v1A3.1,3.1,0,0,0,343,211.4c-3.1,7.56-6.22,15.08-9.33,22.65h-1.88c-2.25-6.39-4.76-13.5-7-19.77-1.35-4-2.5-5.1-4.27-5.1v-1h10v1Z"/><path class="cls-4" d="M351.72,233.08c3.32-.4,3.17-.22,3.17-3.64V212.83c0-3.43.15-3.25-3.17-3.65v-1h16.49v5.94h-.95c-.38-2.74-1.12-4.76-3.76-4.76h-5V220h3.11c2.32,0,3.31-.92,3.39-3.21h1v7.86h-1c-.08-2.17-.92-3.46-3.39-3.46h-3.11v8.33c0,3.14,1.45,3.39,4.76,3.39,5.36,0,5.09-1.51,6.8-5.45h1l-1.1,6.64H351.72v-1Z"/><path class="cls-4" d="M377.33,208.22h10.73c3.72,0,7.46,2,7.46,6.28a7.89,7.89,0,0,1-5.17,7.52l3.62,5.49c1.84,2.71,3.9,5.28,5.2,6.06v.48h-3.8c-2.17,0-3.36-4-7.82-11.43h-3.47v6.82c0,3.42-.16,3.24,3.17,3.64v1h-9.92v-1c3.31-.4,3.17-.22,3.17-3.64V212.83c0-3.43.14-3.25-3.17-3.65v-1Zm6.75,13.21h3.06c3.21,0,4.68-2.43,4.68-6.6s-2.21-5.43-4.9-5.43h-2.84v12Z"/><path class="cls-4" d="M417.82,213.72c-.3-2.58-1.69-4.65-4.65-4.65-2.14,0-4.06,1.11-4.06,3.83s2.58,4.13,6.27,6.91c3.91,2.91,5.17,4.79,5.17,7.85,0,4.4-4.5,6.83-8.93,6.83a17.13,17.13,0,0,1-6.31-1.18c-.15-.07-.25-.23-.25-.52v-5.31h1c.4,4.1,3.09,5.73,5.94,5.73a4.67,4.67,0,0,0,4.75-4.7c0-2.39-1.29-4.35-6.82-8-2-1.34-4.47-2.78-4.47-6.79,0-3.32,3.69-5.94,7.94-5.94a17.15,17.15,0,0,1,5.16.7.34.34,0,0,1,.26.39v4.85Z"/><path class="cls-4" d="M435,229.44c0,3.42-.15,3.24,3.17,3.64v1h-9.93v-1c3.32-.4,3.18-.22,3.18-3.64V212.83c0-3.43.14-3.25-3.18-3.65v-1h9.93v1c-3.32.4-3.17.22-3.17,3.65v16.61Z"/><path class="cls-4" d="M457,229.44c0,3.42-.15,3.24,3.16,3.64v1h-9.92v-1c3.32-.4,3.18-.22,3.18-3.64v-20h-3.33c-3.21,0-3.94,2-5.16,4.46H444l1-5.64h20.41l1,5.64h-.94c-1.2-2.44-1.95-4.46-5.16-4.46H457v20Z"/><path class="cls-4" d="M477.11,233.08c3.34-.4,3.18-.22,3.18-3.64v-5.68l-5.67-11.26c-1.22-2.4-2.25-3.32-4-3.32v-1h9.43v1c-2.8,0-2.56,1.4-1.63,3.32l4.47,9.27L488,212.5c1.26-2.25.07-3.32-2.11-3.32v-1h7.61v1c-1,0-2,.48-3,2.24l-6.17,11.2a6.3,6.3,0,0,0-.43,2.68v4.14c0,3.42-.16,3.24,3.16,3.64v1h-9.94v-1Z"/><path class="cls-4" d="M512.37,225.21c0-6.27,5.4-15.65,13.38-15.65,6.36,0,7.76,4.3,7.76,8.61,0,5.26-4.21,16.45-13.34,16.45-6.13,0-7.8-4.92-7.8-9.41Zm16.74-9.33c0-5-3-5.17-3.78-5.17-5.16,0-8.56,9.29-8.56,15.5,0,2.49.43,7,4,7,5.46,0,8.38-9,8.38-17.3Z"/><path class="cls-4" d="M555.76,211.14l-1.15,1h-6.27c-2.33,11.39-6.16,26.55-8.89,33.81H537.3l6.84-33.81h-4.55l.43-2h4.5c2.53-10.19,11-11.24,13-11.24,1.11,0,3.4.19,4.12.86l-.59,3.16-1.19.57a5,5,0,0,0-4.2-2.77c-2.89,0-5,1.95-6.17,7.12l-.53,2.3h7l-.18,1Z"/><path class="cls-4" d="M584.48,228.07c0,4.45-.18,4.2,4.12,4.73v1.25H575.74V232.8c4.31-.53,4.11-.28,4.11-4.73V206.56c0-4.45.2-4.22-4.11-4.73v-1.25h12.52c7.94,0,11.87,3.15,11.87,8.89,0,6.88-6.22,10.61-13.53,10.18v-1c6,.1,8.74-3.5,8.74-8.76s-2.58-7.83-7.94-7.83h-2.92v26Z"/><path class="cls-4" d="M606.72,233.08c3.31-.4,3.18-.22,3.18-3.64V212.83c0-3.43.13-3.25-3.18-3.65v-1h16.49v5.94h-1c-.37-2.74-1.11-4.76-3.77-4.76h-5V220h3.11c2.31,0,3.31-.92,3.38-3.21h1v7.86h-1c-.07-2.17-.92-3.46-3.38-3.46h-3.11v8.33c0,3.14,1.43,3.39,4.76,3.39,5.34,0,5.09-1.51,6.8-5.45h1l-1.11,6.64H606.72v-1Z"/><path class="cls-4" d="M654.66,234.05c-5.86-6.94-11.95-14.21-18-21.29v16.31a14.56,14.56,0,0,0,.22,2c.19,1.34,1.43,1.86,3.87,2v1h-9v-1c1.78-.17,3-.69,3.17-2a13.12,13.12,0,0,0,.22-2V211.69c-1-1.34-2.17-2.51-4.26-2.51v-1h6.71c5.49,6.68,11.21,13.47,16.71,20.14h.07V213.21a13.41,13.41,0,0,0-.22-2c-.19-1.32-1.44-1.83-3.88-2v-1h9v1c-1.73.19-3,.7-3.18,2a14.86,14.86,0,0,0-.22,2v20.84Z"/><path class="cls-4" d="M688.34,234.05c-5.86-6.94-12-14.21-18-21.29v16.31a14.56,14.56,0,0,0,.22,2c.19,1.34,1.45,1.86,3.88,2v1h-9v-1c1.77-.17,3-.69,3.18-2a14.56,14.56,0,0,0,.22-2V211.69c-1-1.34-2.18-2.51-4.29-2.51v-1h6.71c5.51,6.68,11.23,13.47,16.72,20.14H688V213.21a15,15,0,0,0-.21-2c-.2-1.32-1.45-1.83-3.88-2v-1h9v1c-1.73.19-3,.7-3.17,2a13.3,13.3,0,0,0-.23,2v20.84Z"/><path class="cls-4" d="M712.36,213.72c-.28-2.58-1.7-4.65-4.65-4.65-2.13,0-4.05,1.11-4.05,3.83s2.59,4.13,6.27,6.91c3.91,2.91,5.16,4.79,5.16,7.85,0,4.4-4.49,6.83-8.93,6.83a17.13,17.13,0,0,1-6.31-1.18.53.53,0,0,1-.25-.52v-5.31h.95c.41,4.1,3.11,5.73,6,5.73a4.68,4.68,0,0,0,4.76-4.7c0-2.39-1.29-4.35-6.83-8-2-1.34-4.47-2.78-4.47-6.79,0-3.32,3.7-5.94,7.95-5.94a17.09,17.09,0,0,1,5.15.7.35.35,0,0,1,.27.39v4.85Z"/><path class="cls-4" d="M727.23,233.08c3.33-.4,3.17-.22,3.17-3.64v-5.68l-5.67-11.26c-1.22-2.4-2.26-3.32-3.94-3.32v-1h9.39v1c-2.8,0-2.52,1.4-1.62,3.32l4.47,9.27,5.09-9.27c1.26-2.25.08-3.32-2.1-3.32v-1h7.59v1c-1,0-2,.48-3,2.24l-6.16,11.2a6.46,6.46,0,0,0-.44,2.68v4.14c0,3.42-.15,3.24,3.17,3.64v1h-9.93v-1Z"/><path class="cls-4" d="M750,233.08c3.32-.4,3.18-.22,3.18-3.64V212.83c0-3.43.14-3.25-3.18-3.65v-1h9.93v1c-3.33.4-3.18.22-3.18,3.65V230c0,2.58,1.44,2.83,4.73,2.83,5.35,0,5.13-1.51,6.81-5.45h.93l-1.1,6.64H750v-1Z"/><path class="cls-4" d="M780,209.18c-2,0-3.5.59-2.29,4.13,1.45,4.36,3.59,10.7,5.51,16.31,2.36-5.65,4.6-11.33,6.89-17,.93-2.33,0-3.47-2.54-3.47v-1h8v1a3.08,3.08,0,0,0-3,2.22c-3.1,7.56-6.23,15.08-9.34,22.65h-1.87c-2.25-6.39-4.77-13.5-7-19.77-1.36-4-2.5-5.1-4.27-5.1v-1h10v1Z"/><path class="cls-4" d="M802.26,225.49l-1.71,4.94a1.85,1.85,0,0,0,1.85,2.65v1h-6.72v-1a3,3,0,0,0,2.66-1.84c1.59-3.24,5.9-15.3,9-23.46h2.06c2.51,7.42,6.27,18.78,7.53,22.06.81,2.07,1.41,3.24,3,3.24v1H811.3v-1c2.32,0,2.54-1.22,1.94-2.83l-1.58-4.76Zm8.93-1.4-3.92-12h-.07l-4.4,12Z"/><path class="cls-4" d="M847.69,234.05c-5.88-6.94-12-14.21-18-21.29v16.31a11.86,11.86,0,0,0,.23,2c.18,1.34,1.44,1.86,3.88,2v1h-9.05v-1c1.77-.17,3-.69,3.17-2a13.23,13.23,0,0,0,.21-2V211.69c-1-1.34-2.17-2.51-4.27-2.51v-1h6.72c5.5,6.68,11.21,13.47,16.72,20.14h.07V213.21a13.41,13.41,0,0,0-.22-2c-.19-1.32-1.44-1.83-3.87-2v-1h9v1c-1.73.19-3,.7-3.18,2a14.73,14.73,0,0,0-.23,2v20.84Z"/><path class="cls-4" d="M865.14,229.44c0,3.42-.15,3.24,3.18,3.64v1h-9.94v-1c3.33-.4,3.18-.22,3.18-3.64V212.83c0-3.43.15-3.25-3.18-3.65v-1h9.94v1c-3.33.4-3.18.22-3.18,3.65v16.61Z"/><path class="cls-4" d="M880.57,225.49l-1.7,4.94a1.84,1.84,0,0,0,1.85,2.65v1H874v-1a3,3,0,0,0,2.66-1.84c1.57-3.24,5.9-15.3,9-23.46h2.06c2.51,7.42,6.27,18.78,7.52,22.06.82,2.07,1.4,3.24,3,3.24v1h-8.59v-1c2.32,0,2.54-1.22,1.95-2.83L890,225.49Zm8.92-1.4-3.9-12h-.07l-4.4,12Z"/><rect class="cls-4" x="230.98" y="183.78" width="667.22" height="2.79"/><path class="cls-4" d="M231,159c0-4.72,4-11,12.26-11a15.73,15.73,0,0,1,5.88,1.05c.86.27,1.2.7,1.2,1.19v3.95h-.8c-.09-2.45-1.65-5.12-6.53-5.12-6.4,0-8.49,4.42-8.52,9.66,0,4.84,2.42,10.39,8.64,10.39,3.83,0,4.17-1.41,4.17-3.8v-1.87c0-2.85.13-2.7-3.25-3v-.8h8.86v.8c-2.76.33-2.63.18-2.63,3v5.33a20.47,20.47,0,0,1-7.33,1.41C236.65,170.22,231,167.22,231,159Z"/><path class="cls-4" d="M259.44,148.4h8.91c3.1,0,6.2,1.63,6.2,5.21a6.55,6.55,0,0,1-4.29,6.25l3,4.57c1.53,2.24,3.25,4.38,4.32,5v.39h-3.16c-1.8,0-2.79-3.33-6.49-9.5h-2.88V166c0,2.85-.13,2.7,2.63,3v.79h-8.24v-.79c2.75-.34,2.63-.19,2.63-3V152.23c0-2.85.12-2.69-2.63-3Zm5.61,11h2.54c2.67,0,3.89-2,3.89-5.48s-1.84-4.51-4.07-4.51h-2.36Z"/><path class="cls-4" d="M287.74,162.75l-1.41,4.1a1.53,1.53,0,0,0,1.53,2.21v.79h-5.57v-.79a2.53,2.53,0,0,0,2.2-1.53c1.32-2.7,4.91-12.72,7.45-19.5h1.71c2.09,6.17,5.21,15.6,6.26,18.33.67,1.72,1.16,2.7,2.48,2.7v.79h-7.14v-.79c1.93,0,2.11-1,1.62-2.36l-1.31-3.95Zm7.42-1.17-3.25-10h-.06l-3.65,10Z"/><path class="cls-4" d="M308.35,148.4h10.17c7.42,0,11.22,3.8,11.22,10.12,0,6.12-4.5,11.33-12.1,11.33h-9.29v-.79c2.76-.34,2.64-.19,2.64-3V152.23c0-2.85.12-2.69-2.64-3ZM314,165.5c0,3.34.76,3.37,3.68,3.37,4.84,0,8.61-2.57,8.61-10.29,0-5.83-3.13-9.2-9-9.2H314Z"/><path class="cls-4" d="M342,161.21c0,4.29,1.16,7.57,5.73,7.57,4.2,0,6.4-2.82,6.4-7.72v-8.52a12.4,12.4,0,0,0-.18-1.66c-.15-1.1-1.2-1.53-2.64-1.68v-.8h7.24v.8c-1.47.15-2.49.58-2.64,1.68a12.4,12.4,0,0,0-.18,1.66v8.64c0,6.59-4.2,9-8.15,9-6.53,0-8.56-3.31-8.56-8.86v-9.13c0-2.85.13-2.69-2.63-3v-.8h8.24v.8c-2.76.34-2.63.18-2.63,3Z"/><path class="cls-4" d="M369.59,162.75l-1.41,4.1a1.53,1.53,0,0,0,1.53,2.21v.79h-5.58v-.79a2.53,2.53,0,0,0,2.21-1.53c1.32-2.7,4.9-12.72,7.45-19.5h1.71c2.09,6.17,5.21,15.6,6.25,18.33.68,1.72,1.17,2.7,2.49,2.7v.79H377.1v-.79c1.93,0,2.11-1,1.62-2.36l-1.32-3.95Zm7.41-1.17-3.24-10h-.07l-3.64,10Z"/><path class="cls-4" d="M398.59,166c0,2.85-.12,2.7,2.64,3v.79H393v-.79c2.75-.34,2.63-.19,2.63-3V149.38h-2.75c-2.67,0-3.29,1.69-4.3,3.71h-.76l.82-4.69h16.95l.83,4.69h-.77c-1-2-1.62-3.71-4.29-3.71h-2.76Z"/><path class="cls-4" d="M412,169.06c2.76-.34,2.64-.19,2.64-3V152.23c0-2.85.12-2.69-2.64-3v-.8h13.7v4.94h-.8c-.3-2.27-.92-4-3.12-4h-4.17v8.77h2.57c1.93,0,2.76-.77,2.82-2.67h.8V162H423c-.06-1.81-.76-2.88-2.82-2.88h-2.57v6.92c0,2.61,1.19,2.82,3.95,2.82,4.45,0,4.23-1.25,5.64-4.53h.8l-.92,5.51H412Z"/><path class="cls-4" d="M457.63,153c-.25-2.15-1.41-3.87-3.86-3.87-1.78,0-3.38.93-3.38,3.19s2.15,3.44,5.21,5.74c3.25,2.42,4.3,4,4.3,6.52,0,3.65-3.74,5.67-7.42,5.67a14.3,14.3,0,0,1-5.24-1,.41.41,0,0,1-.22-.43V164.4h.8c.34,3.4,2.57,4.75,4.93,4.75a3.88,3.88,0,0,0,4-3.89c0-2-1.08-3.62-5.67-6.65-1.66-1.11-3.71-2.3-3.71-5.64,0-2.76,3.06-4.94,6.59-4.94a14.34,14.34,0,0,1,4.29.59.29.29,0,0,1,.21.33v4Z"/><path class="cls-4" d="M487.15,164.4l-.92,3.83c0,.67-.55.8-1.41,1.07a19,19,0,0,1-6,.92c-6.29,0-12-3-12-11.22,0-4.72,4-11,12.26-11a15.84,15.84,0,0,1,5.89,1.05c.85.27,1.19.7,1.19,1.19v3.95h-.8c-.09-2.45-1.65-5.12-6.52-5.12-5.73,0-8.49,4.14-8.52,9.66,0,6.1,2.76,10.39,9,10.39a7,7,0,0,0,7-4.75Z"/><path class="cls-4" d="M499.27,166c0,2.85-.12,2.7,2.64,3v.79h-8.24v-.79c2.75-.34,2.63-.19,2.63-3V152.23c0-2.85.12-2.69-2.63-3v-.8h8.24v.8c-2.76.34-2.64.18-2.64,3v5.3H510v-5.3c0-2.85.12-2.69-2.63-3v-.8h8.24v.8c-2.76.34-2.64.18-2.64,3V166c0,2.85-.12,2.7,2.64,3v.79H507.4v-.79c2.75-.34,2.63-.19,2.63-3v-7.23H499.27Z"/><path class="cls-4" d="M522.64,159.53A11.34,11.34,0,0,1,534.17,148a10.59,10.59,0,0,1,10.51,10.45,11.46,11.46,0,0,1-11.62,11.74A10.47,10.47,0,0,1,522.64,159.53Zm18.55-.13c0-7.32-4-10.3-7.7-10.3-5.21,0-7.35,4.66-7.35,8.83,0,7.42,3.8,11.22,7.75,11.22C539.59,169.15,541.19,163.51,541.19,159.4Z"/><path class="cls-4" d="M551.93,159.53A11.34,11.34,0,0,1,563.46,148,10.59,10.59,0,0,1,574,158.48a11.47,11.47,0,0,1-11.62,11.74A10.47,10.47,0,0,1,551.93,159.53Zm18.54-.13c0-7.32-4-10.3-7.69-10.3-5.21,0-7.36,4.66-7.36,8.83,0,7.42,3.81,11.22,7.76,11.22C568.88,169.15,570.47,163.51,570.47,159.4Z"/><path class="cls-4" d="M581,169.06c2.76-.34,2.64-.19,2.64-3V152.23c0-2.85.12-2.69-2.64-3v-.8h8.25v.8c-2.76.34-2.64.18-2.64,3v14.29c0,2.14,1.19,2.35,3.92,2.35,4.45,0,4.26-1.25,5.67-4.53h.77l-.92,5.51H581Z"/><path class="cls-4" d="M616.21,159.53A11.34,11.34,0,0,1,627.73,148a10.59,10.59,0,0,1,10.51,10.45,11.46,11.46,0,0,1-11.61,11.74A10.47,10.47,0,0,1,616.21,159.53Zm18.54-.13c0-7.32-4-10.3-7.69-10.3-5.21,0-7.36,4.66-7.36,8.83,0,7.42,3.8,11.22,7.75,11.22C633.15,169.15,634.75,163.51,634.75,159.4Z"/><path class="cls-4" d="M650.86,158.76h2.91c1.93,0,2.75-.77,2.82-2.67h.79v6.56h-.79c-.1-1.81-.77-2.91-2.82-2.91h-2.91V166c0,2.85-.13,2.7,2.63,3v.79h-8.24v-.79c2.75-.34,2.63-.19,2.63-3V152.23c0-2.85.12-2.69-2.63-3v-.8H659v4.94h-.8c-.4-2.27-.92-4-3.13-4h-4.16Z"/><path class="cls-4" d="M678.58,169.06c2.76-.34,2.64-.19,2.64-3V152.23c0-2.85.12-2.69-2.64-3v-.8h13.7v4.94h-.8c-.3-2.27-.92-4-3.12-4h-4.17v8.77h2.57c1.94,0,2.76-.77,2.82-2.67h.8V162h-.8c-.06-1.81-.76-2.88-2.82-2.88h-2.57v6.92c0,2.61,1.19,2.82,3.95,2.82,4.45,0,4.23-1.25,5.64-4.53h.8l-.92,5.51H678.58Z"/><path class="cls-4" d="M700.51,148.4h10.17c7.42,0,11.22,3.8,11.22,10.12,0,6.12-4.51,11.33-12.11,11.33h-9.28v-.79c2.75-.34,2.63-.19,2.63-3V152.23c0-2.85.12-2.69-2.63-3Zm5.61,17.1c0,3.34.76,3.37,3.67,3.37,4.85,0,8.61-2.57,8.61-10.29,0-5.83-3.12-9.2-9-9.2h-3.27Z"/><path class="cls-4" d="M734.14,161.21c0,4.29,1.17,7.57,5.74,7.57,4.19,0,6.4-2.82,6.4-7.72v-8.52a12.4,12.4,0,0,0-.18-1.66c-.16-1.1-1.2-1.53-2.64-1.68v-.8h7.23v.8c-1.47.15-2.48.58-2.63,1.68a12.29,12.29,0,0,0-.19,1.66v8.64c0,6.59-4.19,9-8.15,9-6.53,0-8.55-3.31-8.55-8.86v-9.13c0-2.85.13-2.69-2.63-3v-.8h8.24v.8c-2.76.34-2.64.18-2.64,3Z"/><path class="cls-4" d="M777.59,164.4l-.92,3.83c0,.67-.55.8-1.41,1.07a19,19,0,0,1-6,.92c-6.29,0-12-3-12-11.22,0-4.72,4-11,12.26-11a15.84,15.84,0,0,1,5.89,1.05c.85.27,1.19.7,1.19,1.19v3.95h-.8c-.09-2.45-1.65-5.12-6.52-5.12-5.74,0-8.49,4.14-8.52,9.66,0,6.1,2.75,10.39,9,10.39a7,7,0,0,0,6.95-4.75Z"/><path class="cls-4" d="M788.76,162.75l-1.41,4.1a1.54,1.54,0,0,0,1.53,2.21v.79h-5.57v-.79a2.53,2.53,0,0,0,2.2-1.53c1.32-2.7,4.91-12.72,7.45-19.5h1.72c2.08,6.17,5.21,15.6,6.25,18.33.67,1.72,1.16,2.7,2.48,2.7v.79h-7.14v-.79c1.93,0,2.12-1,1.62-2.36l-1.31-3.95Zm7.42-1.17-3.25-10h-.06l-3.65,10Z"/><path class="cls-4" d="M817.77,166c0,2.85-.12,2.7,2.64,3v.79h-8.25v-.79c2.76-.34,2.64-.19,2.64-3V149.38H812c-2.67,0-3.28,1.69-4.29,3.71H807l.83-4.69h17l.82,4.69h-.76c-1-2-1.63-3.71-4.29-3.71h-2.76Z"/><path class="cls-4" d="M836.79,166c0,2.85-.13,2.7,2.63,3v.79h-8.24v-.79c2.76-.34,2.63-.19,2.63-3V152.23c0-2.85.13-2.69-2.63-3v-.8h8.24v.8c-2.76.34-2.63.18-2.63,3Z"/><path class="cls-4" d="M846.42,159.53A11.34,11.34,0,0,1,857.94,148a10.59,10.59,0,0,1,10.51,10.45,11.46,11.46,0,0,1-11.61,11.74A10.47,10.47,0,0,1,846.42,159.53ZM865,159.4c0-7.32-4-10.3-7.69-10.3-5.21,0-7.36,4.66-7.36,8.83,0,7.42,3.8,11.22,7.75,11.22C863.36,169.15,865,163.51,865,159.4Z"/><path class="cls-4" d="M894.34,169.85c-4.88-5.76-9.93-11.8-14.93-17.68v13.55a11.94,11.94,0,0,0,.19,1.65c.15,1.11,1.19,1.53,3.21,1.69v.79h-7.5v-.79c1.47-.16,2.48-.58,2.63-1.69a11.94,11.94,0,0,0,.19-1.65V151.28a4.31,4.31,0,0,0-3.56-2.08v-.8h5.58c4.56,5.55,9.31,11.19,13.88,16.73h.06V152.54a12.4,12.4,0,0,0-.18-1.66c-.16-1.1-1.2-1.53-3.22-1.68v-.8h7.51v.8c-1.44.15-2.48.58-2.64,1.68a12.4,12.4,0,0,0-.18,1.66v17.31Z"/></svg>